<svg xmlns="http://www.w3.org/2000/svg" viewBox="0 0 4069.02 797.31"><title>Asset 17mdpi</title><path d="M4069,215.06a53.22,53.22,0,1,1-53.22-53.22A53.27,53.27,0,0,1,4069,215.06Zm-10.81,0a42.42,42.42,0,1,0-42.4,42.42A42.43,42.43,0,0,0,4058.21,215.05Z" style="fill:#474747"/><path d="M4025.11,215.7a10.23,10.23,0,0,1,3.46,1.62,16.71,16.71,0,0,1,4.08,4.51,62.05,62.05,0,0,1,3.65,6.82q3.12,6.32,6.22,12.62l.2.44h-14.88a.57.57,0,0,1-.59-.38c-2.36-4.83-4.71-9.66-7.13-14.46a21.11,21.11,0,0,0-2.17-3.3,7.13,7.13,0,0,0-5.28-2.81c-1.86-.15-3.74-.1-5.61-.14-.18,0-.26.06-.25.25s0,.21,0,.32v20.48h-14.33V186l.25,0c7.8,0,15.6,0,23.4,0a33,33,0,0,1,10,1.49,14.18,14.18,0,0,1,6.06,3.61,12.33,12.33,0,0,1,3.19,6.68,18.8,18.8,0,0,1-.48,8.91,12.53,12.53,0,0,1-6.38,7.45C4027.4,214.76,4026.24,215.2,4025.11,215.7Zm-18.28-19.26c0,.12,0,.21,0,.29q0,6.83,0,13.64c0,.3.12.35.38.35h5.62a15.93,15.93,0,0,0,3.89-.41A5.39,5.39,0,0,0,4021,206a11.54,11.54,0,0,0,0-4.93,5.09,5.09,0,0,0-3.77-4.08,13.33,13.33,0,0,0-2.93-.51c-2.42-.08-4.85-.06-7.27-.07Z" style="fill:#474747"/><path d="M1073.74,161.41c40.43,0,59.73,20.22,58.81,59.73V257H1010.33V161.41Z" style="fill:#353635"/><path d="M1073.74,300.17c39.51,0,58.81,19.29,58.81,58.81v427.3H1010.33V300.17Z" style="fill:#474747"/><path d="M1323.67,221.14V786.28H1201.45V161.41h63.41C1297,161.41,1323.67,189,1323.67,221.14Z" style="fill:#474747"/><path d="M1591.08,797.31c-147-4.6-220.55-90.06-220.55-255.47s74.44-248.11,222.38-249c154.38,0,227,94.64,217.79,284.86H1496.43c4.59,74.44,36.75,112.11,96.48,112.11,28.49,0,55.14-11.95,79-34.92,11-12,24.81-17.46,41.35-17.46h90.06C1776.7,740.33,1710.53,797.31,1591.08,797.31Zm-92.82-306.93h182.87c-7.35-64.32-37.68-97.4-90.05-97.4S1507.45,426.06,1498.26,490.38Z" style="fill:#474747"/><path d="M2061.56,698.06c51.46,0,77.19-14.7,77.19-45.94,0-24.82-42.27-45-125.89-59.74C1905.35,573.09,1850.21,525.3,1849.29,449c0-104.76,82.7-154.38,193.89-156.21q93.73,0,148.87,41.35,53.76,42.72,57.89,118.54h-77.19c-28.48-.92-46.86-11-54.21-30.33-8.27-21.13-33.08-33.08-73.52-33.08-47.78,0-71.67,12.87-71.67,37.68s31.24,44.11,94.65,56c82.7,16.54,136.92,37.68,163.56,62.49,23,23.89,34,53.3,34,86.38,0,119.46-93.73,163.57-222.38,163.57-68,0-119.46-14.71-152.54-43.19-36.75-27.57-55.13-69.84-55.13-125.9h125C1963.24,679.68,2001.83,698.06,2061.56,698.06Z" style="fill:#474747"/><path d="M2946.49,300.17,2811.41,786.28H2684.6L2611.09,438,2533.9,786.28H2406.17L2272.92,300.17H2397l77.19,337.24L2544,300.17h129.57l66.16,337.24,66.16-292.22c9.19-30.32,29.41-45,59.73-45Z" style="fill:#f38820"/><path d="M3092.61,427H2970.4c14.7-90.06,78.11-134.16,190.22-134.16,134.16,0,202.16,44.1,204.92,134.16v165.4c0,134.17-80.87,193.9-212.27,203.09-116.71,9.19-197.57-45-197.57-152.55C2958.45,526.22,3043,495,3166.13,483c52.38-6.43,79-22,79-48.7-2.76-27.57-28.49-41.35-79-41.35C3122.94,393,3099.05,404,3092.61,427ZM3247,586.87v-45c-28.49,11.95-61.57,22.06-97.41,29.41-48.7,9.19-73.52,32.16-73.52,68,2.76,38.59,23,57,61.57,57C3205.64,696.22,3247,655.79,3247,586.87Z" style="fill:#f38820"/><path d="M3546.55,221.14V786.28H3424.34V161.41h63.4C3519.9,161.41,3546.55,189,3546.55,221.14Z" style="fill:#f38820"/><path d="M3814,797.31c-147-4.6-220.55-90.06-220.55-255.47s74.44-248.11,222.39-249c154.37,0,227,94.64,217.78,284.86H3719.31c4.59,74.44,36.75,112.11,96.49,112.11,28.48,0,55.13-11.95,79-34.92,11-12,24.81-17.46,41.35-17.46h90.06C3999.58,740.33,3933.42,797.31,3814,797.31Zm-92.82-306.93H3904c-7.35-64.32-37.67-97.4-90.05-97.4S3730.34,426.06,3721.14,490.38Z" style="fill:#f38820"/><path d="M885.35,390.39V659.63c0,20.22,11.95,31.24,35.85,31.24h37.68v92.82a674.67,674.67,0,0,1-128.64-.93c-46-4.58-68-33.09-67.09-87.3V390.39H697.72V303.16h65.43V164.32h63.41c32.16,0,58.79,29.41,58.79,61.58v77.18h73.53v26.66c0,34.92-26.66,60.65-60.65,60.65Z" style="fill:#474747"/><path d="M471.28,180.76H422.14c0-72.58-59.05-131.62-131.63-131.62s-131.63,59-131.63,131.62H109.75a180.77,180.77,0,0,1,361.53,0Z" style="fill:#474747"/><path d="M61.42,788.5h-43A18.43,18.43,0,0,1,0,770.08V195.19A36.23,36.23,0,0,1,36.24,159H544.79A36.23,36.23,0,0,1,581,195.19V750.42a36.23,36.23,0,0,1-36.23,36.24H295.43a36.23,36.23,0,0,1-36.24-36.24V570.47a36.23,36.23,0,0,1,36.24-36.24h7.37A36.23,36.23,0,0,1,339,570.47V706.82H501.18v-468H79.84V770.08A18.42,18.42,0,0,1,61.42,788.5Z" style="fill:#f38820"/><circle cx="299.83" cy="459.6" r="46.68" style="fill:#474747"/></svg>